<svg xmlns="http://www.w3.org/2000/svg" xmlns:xlink="http://www.w3.org/1999/xlink" width="1024" zoomAndPan="magnify" viewBox="0 0 768 767.999994" height="1024" preserveAspectRatio="xMidYMid meet" version="1.0"><defs><clipPath id="a5d4345a7a"><path d="M 284.621094 350.367188 L 333.5 350.367188 L 333.5 399.246094 L 284.621094 399.246094 Z M 284.621094 350.367188 " clip-rule="nonzero"/></clipPath><clipPath id="629d840e6f"><path d="M 309.0625 350.367188 C 295.5625 350.367188 284.621094 361.308594 284.621094 374.804688 C 284.621094 388.304688 295.5625 399.246094 309.0625 399.246094 C 322.558594 399.246094 333.5 388.304688 333.5 374.804688 C 333.5 361.308594 322.558594 350.367188 309.0625 350.367188 Z M 309.0625 350.367188 " clip-rule="nonzero"/></clipPath><clipPath id="eed9445997"><path d="M 364.289062 350.367188 L 413.171875 350.367188 L 413.171875 399.246094 L 364.289062 399.246094 Z M 364.289062 350.367188 " clip-rule="nonzero"/></clipPath><clipPath id="f051bc675e"><path d="M 388.730469 350.367188 C 375.234375 350.367188 364.289062 361.308594 364.289062 374.804688 C 364.289062 388.304688 375.234375 399.246094 388.730469 399.246094 C 402.230469 399.246094 413.171875 388.304688 413.171875 374.804688 C 413.171875 361.308594 402.230469 350.367188 388.730469 350.367188 Z M 388.730469 350.367188 " clip-rule="nonzero"/></clipPath><clipPath id="1d25f3ec8a"><path d="M 435.992188 350.367188 L 484.871094 350.367188 L 484.871094 399.246094 L 435.992188 399.246094 Z M 435.992188 350.367188 " clip-rule="nonzero"/></clipPath><clipPath id="ff51542ac6"><path d="M 460.429688 350.367188 C 446.933594 350.367188 435.992188 361.308594 435.992188 374.804688 C 435.992188 388.304688 446.933594 399.246094 460.429688 399.246094 C 473.929688 399.246094 484.871094 388.304688 484.871094 374.804688 C 484.871094 361.308594 473.929688 350.367188 460.429688 350.367188 Z M 460.429688 350.367188 " clip-rule="nonzero"/></clipPath></defs><rect x="-76.8" width="921.6" fill="#ffffff" y="-76.799999" height="921.599993" fill-opacity="1"/><rect x="-76.8" width="921.6" fill="#d3efff" y="-76.799999" height="921.599993" fill-opacity="1"/><path fill="#beddff" d="M 625.863281 333.070312 C 627.667969 232.867188 480.453125 135.324219 389.730469 132.015625 C 332.617188 129.945312 285.304688 161.136719 247.953125 199.808594 C 211.726562 237.308594 175.285156 277.394531 150.8125 323.820312 C 125.511719 371.851562 112.640625 427.0625 136.261719 478.21875 C 156.550781 522.164062 195.796875 557.230469 237.765625 580.058594 C 327.730469 628.988281 447.449219 638.097656 542.074219 597.765625 C 591.953125 576.503906 627.5625 541.929688 637.800781 487.34375 C 647.40625 436.136719 624.925781 385.164062 625.863281 333.070312 Z M 625.863281 333.070312 " fill-opacity="1" fill-rule="nonzero"/><g clip-path="url(#a5d4345a7a)"><g clip-path="url(#629d840e6f)"><path fill="#8daacb" d="M 284.621094 350.367188 L 333.5 350.367188 L 333.5 399.246094 L 284.621094 399.246094 Z M 284.621094 350.367188 " fill-opacity="1" fill-rule="nonzero"/></g></g><g clip-path="url(#eed9445997)"><g clip-path="url(#f051bc675e)"><path fill="#8daacb" d="M 364.289062 350.367188 L 413.171875 350.367188 L 413.171875 399.246094 L 364.289062 399.246094 Z M 364.289062 350.367188 " fill-opacity="1" fill-rule="nonzero"/></g></g><g clip-path="url(#1d25f3ec8a)"><g clip-path="url(#ff51542ac6)"><path fill="#8daacb" d="M 435.992188 350.367188 L 484.871094 350.367188 L 484.871094 399.246094 L 435.992188 399.246094 Z M 435.992188 350.367188 " fill-opacity="1" fill-rule="nonzero"/></g></g></svg>