<svg xmlns="http://www.w3.org/2000/svg" xmlns:xlink="http://www.w3.org/1999/xlink" width="1024" zoomAndPan="magnify" viewBox="0 0 768 767.999994" height="1024" preserveAspectRatio="xMidYMid meet" version="1.0"><defs><clipPath id="b1139ab55f"><path d="M 271.046875 250.722656 L 516.296875 250.722656 L 516.296875 495.972656 L 271.046875 495.972656 Z M 271.046875 250.722656 " clip-rule="nonzero"/></clipPath></defs><rect x="-76.8" width="921.6" fill="#ffffff" y="-76.799999" height="921.599993" fill-opacity="1"/><rect x="-76.8" width="921.6" fill="#dbefe9" y="-76.799999" height="921.599993" fill-opacity="1"/><path fill="#ccddd8" d="M 431.972656 636.042969 C 532.546875 637.855469 630.449219 490.097656 633.769531 399.039062 C 635.847656 341.714844 604.542969 294.230469 565.726562 256.738281 C 528.085938 220.378906 487.855469 183.800781 441.257812 159.242188 C 393.050781 133.84375 337.632812 120.929688 286.289062 144.636719 C 242.183594 165 206.984375 204.390625 184.074219 246.515625 C 134.964844 336.808594 125.820312 456.96875 166.300781 551.945312 C 187.640625 602.011719 222.339844 637.75 277.128906 648.023438 C 328.523438 657.667969 379.6875 635.105469 431.972656 636.042969 Z M 431.972656 636.042969 " fill-opacity="1" fill-rule="nonzero"/><g clip-path="url(#b1139ab55f)"><path fill="#9baba6" d="M 393.675781 250.722656 C 326.058594 250.722656 271.046875 305.734375 271.046875 373.351562 C 271.046875 440.972656 326.058594 495.984375 393.675781 495.984375 C 461.296875 495.984375 516.308594 440.972656 516.308594 373.351562 C 516.308594 305.734375 461.296875 250.722656 393.675781 250.722656 Z M 393.675781 271.160156 C 399.308594 271.160156 403.894531 275.746094 403.894531 281.378906 C 403.894531 287.015625 399.308594 291.597656 393.675781 291.597656 C 388.042969 291.597656 383.457031 287.015625 383.457031 281.378906 C 383.457031 275.746094 388.042969 271.160156 393.675781 271.160156 Z M 301.703125 383.574219 C 296.070312 383.574219 291.484375 378.984375 291.484375 373.351562 C 291.484375 367.71875 296.070312 363.132812 301.703125 363.132812 C 307.335938 363.132812 311.921875 367.71875 311.921875 373.351562 C 311.921875 378.984375 307.335938 383.574219 301.703125 383.574219 Z M 393.675781 475.542969 C 388.042969 475.542969 383.457031 470.960938 383.457031 465.324219 C 383.457031 459.691406 388.042969 455.105469 393.675781 455.105469 C 399.308594 455.105469 403.894531 459.691406 403.894531 465.324219 C 403.894531 470.960938 399.308594 475.542969 393.675781 475.542969 Z M 443.277344 422.953125 C 442.277344 423.949219 440.96875 424.449219 439.664062 424.449219 C 438.355469 424.449219 437.050781 423.949219 436.050781 422.953125 L 396.164062 383.070312 C 395.347656 383.28125 394.558594 383.574219 393.675781 383.574219 C 388.042969 383.574219 383.457031 378.984375 383.457031 373.351562 C 383.457031 368.058594 387.554688 363.839844 392.714844 363.332031 L 424.8125 294.546875 C 426.011719 292 429.054688 290.90625 431.605469 292.078125 C 434.164062 293.273438 435.265625 296.3125 434.074219 298.871094 L 401.953125 367.699219 C 403.082031 369.335938 403.894531 371.214844 403.894531 373.351562 C 403.894531 374.234375 403.605469 375.027344 403.390625 375.84375 L 443.277344 415.726562 C 445.269531 417.722656 445.269531 420.957031 443.277344 422.953125 Z M 485.648438 383.574219 C 480.015625 383.574219 475.429688 378.984375 475.429688 373.351562 C 475.429688 367.71875 480.015625 363.132812 485.648438 363.132812 C 491.285156 363.132812 495.867188 367.71875 495.867188 373.351562 C 495.867188 378.984375 491.285156 383.574219 485.648438 383.574219 Z M 485.648438 383.574219 " fill-opacity="1" fill-rule="nonzero"/></g></svg>