<svg xmlns="http://www.w3.org/2000/svg" xmlns:xlink="http://www.w3.org/1999/xlink" width="1024" zoomAndPan="magnify" viewBox="0 0 768 767.999994" height="1024" preserveAspectRatio="xMidYMid meet" version="1.0"><defs><clipPath id="72d6191d91"><path d="M 278 253.125 L 482 253.125 L 482 496.125 L 278 496.125 Z M 278 253.125 " clip-rule="nonzero"/></clipPath></defs><rect x="-76.8" width="921.6" fill="#ffffff" y="-76.799999" height="921.599993" fill-opacity="1"/><rect x="-76.8" width="921.6" fill="#ffd1c5" y="-76.799999" height="921.599993" fill-opacity="1"/><path fill="#ffadad" d="M 333.070312 124.769531 C 232.867188 122.964844 135.320312 270.179688 132.011719 360.902344 C 129.941406 418.015625 161.132812 465.328125 199.808594 502.679688 C 237.308594 538.90625 277.394531 575.347656 323.820312 599.820312 C 371.851562 625.121094 427.0625 637.992188 478.21875 614.367188 C 522.164062 594.078125 557.230469 554.835938 580.058594 512.867188 C 628.988281 422.902344 638.097656 303.183594 597.765625 208.558594 C 576.503906 158.675781 541.929688 123.066406 487.34375 112.832031 C 436.136719 103.226562 385.160156 125.707031 333.070312 124.769531 Z M 333.070312 124.769531 " fill-opacity="1" fill-rule="nonzero"/><g clip-path="url(#72d6191d91)"><path fill="#a87272" d="M 439.203125 366.117188 C 415.964844 366.117188 397.027344 384.976562 397.027344 408.21875 C 397.027344 431.460938 415.964844 450.316406 439.203125 450.316406 C 461.585938 450.316406 479.816406 432.710938 481.070312 410.566406 C 481.226562 409.863281 481.304688 265.644531 481.304688 265.644531 C 481.304688 261.886719 479.582031 258.367188 476.53125 256.175781 C 473.558594 253.984375 469.644531 253.359375 466.125 254.453125 L 347.492188 291.308594 C 342.5625 292.875 339.277344 297.414062 339.277344 302.578125 L 339.277344 416.75 C 333.566406 413.929688 327.304688 412.210938 320.574219 412.210938 C 297.332031 412.210938 278.476562 431.144531 278.476562 454.386719 C 278.476562 477.550781 297.332031 496.488281 320.574219 496.488281 C 343.03125 496.488281 361.1875 478.800781 362.441406 456.734375 C 362.59375 455.953125 362.753906 357.121094 362.753906 357.121094 L 457.828125 327.539062 L 457.828125 370.65625 C 452.195312 367.839844 445.933594 366.117188 439.203125 366.117188 Z M 439.203125 366.117188 " fill-opacity="1" fill-rule="nonzero"/></g></svg>