<svg xmlns="http://www.w3.org/2000/svg" xmlns:xlink="http://www.w3.org/1999/xlink" width="1024" zoomAndPan="magnify" viewBox="0 0 768 767.999994" height="1024" preserveAspectRatio="xMidYMid meet" version="1.0"><defs><clipPath id="8d86db607b"><path d="M 283.210938 263.351562 L 499 263.351562 L 499 503.351562 L 283.210938 503.351562 Z M 283.210938 263.351562 " clip-rule="nonzero"/></clipPath></defs><rect x="-76.8" width="921.6" fill="#ffffff" y="-76.799999" height="921.599993" fill-opacity="1"/><rect x="-76.8" width="921.6" fill="#ffd1c5" y="-76.799999" height="921.599993" fill-opacity="1"/><path fill="#ffadad" d="M 319.851562 167.09375 C 219.648438 165.289062 122.105469 312.503906 118.796875 403.226562 C 116.726562 460.339844 147.917969 507.652344 186.589844 545.003906 C 224.09375 581.230469 264.179688 617.671875 310.601562 642.144531 C 358.632812 667.445312 413.84375 680.316406 465.003906 656.691406 C 508.945312 636.402344 544.015625 597.160156 566.839844 555.191406 C 615.769531 465.226562 624.878906 345.507812 584.550781 250.882812 C 563.289062 201 528.714844 165.390625 474.128906 155.15625 C 422.921875 145.550781 371.945312 168.03125 319.851562 167.09375 Z M 319.851562 167.09375 " fill-opacity="1" fill-rule="nonzero"/><g clip-path="url(#8d86db607b)"><path fill="#a87272" d="M 450.992188 395.183594 L 391.070312 395.183594 L 391.070312 455.105469 L 450.992188 455.105469 Z M 439.007812 263.355469 L 439.007812 287.324219 L 343.132812 287.324219 L 343.132812 263.355469 L 319.164062 263.355469 L 319.164062 287.324219 L 307.179688 287.324219 C 293.9375 287.324219 283.332031 298.050781 283.332031 311.292969 L 283.210938 479.074219 C 283.210938 492.316406 293.9375 503.042969 307.179688 503.042969 L 474.960938 503.042969 C 488.203125 503.042969 498.929688 492.316406 498.929688 479.074219 L 498.929688 311.292969 C 498.929688 298.050781 488.203125 287.324219 474.960938 287.324219 L 462.976562 287.324219 L 462.976562 263.355469 Z M 474.960938 479.074219 L 307.179688 479.074219 L 307.179688 347.246094 L 474.960938 347.246094 Z M 474.960938 479.074219 " fill-opacity="1" fill-rule="nonzero"/></g></svg>