<svg xmlns="http://www.w3.org/2000/svg" xmlns:xlink="http://www.w3.org/1999/xlink" width="1024" zoomAndPan="magnify" viewBox="0 0 768 767.999994" height="1024" preserveAspectRatio="xMidYMid meet" version="1.0"><defs><clipPath id="b2ca320843"><path d="M 289.761719 275.339844 L 505.761719 275.339844 L 505.761719 491.335938 L 289.761719 491.335938 Z M 289.761719 275.339844 " clip-rule="nonzero"/></clipPath></defs><rect x="-76.8" width="921.6" fill="#ffffff" y="-76.799999" height="921.599993" fill-opacity="1"/><rect x="-76.8" width="921.6" fill="#dbefe9" y="-76.799999" height="921.599993" fill-opacity="1"/><path fill="#ccddd8" d="M 431.792969 636.53125 C 531.996094 638.335938 629.542969 491.121094 632.851562 400.398438 C 634.921875 343.285156 603.730469 295.972656 565.054688 258.621094 C 527.554688 222.394531 487.46875 185.953125 441.042969 161.480469 C 393.011719 136.179688 337.800781 123.308594 286.644531 146.929688 C 242.699219 167.21875 207.632812 206.464844 184.808594 248.433594 C 135.878906 338.398438 126.769531 458.117188 167.097656 552.742188 C 188.359375 602.621094 222.933594 638.230469 277.519531 648.46875 C 328.726562 658.074219 379.703125 635.59375 431.792969 636.53125 Z M 431.792969 636.53125 " fill-opacity="1" fill-rule="nonzero"/><g clip-path="url(#b2ca320843)"><path fill="#9baba6" d="M 315.441406 283.578125 C 305.824219 283.578125 298 291.402344 298 301.019531 L 298 465.417969 C 298 475.035156 305.824219 482.859375 315.441406 482.859375 L 479.839844 482.859375 C 489.457031 482.859375 497.28125 475.035156 497.28125 465.417969 L 497.28125 301.019531 C 497.28125 291.402344 489.457031 283.578125 479.839844 283.578125 Z M 479.839844 491.078125 L 315.441406 491.078125 C 301.292969 491.078125 289.78125 479.566406 289.78125 465.417969 L 289.78125 301.019531 C 289.78125 286.871094 301.292969 275.359375 315.441406 275.359375 L 479.839844 275.359375 C 493.988281 275.359375 505.5 286.871094 505.5 301.019531 L 505.5 465.417969 C 505.5 479.566406 493.988281 491.078125 479.839844 491.078125 " fill-opacity="1" fill-rule="nonzero"/></g><path fill="#9baba6" d="M 440.96875 335.738281 L 397.824219 417.917969 L 343.367188 373.359375 C 342.226562 372.429688 340.554688 372.5625 339.574219 373.664062 L 293.890625 425.109375 L 293.890625 475.035156 C 295.722656 481.238281 301.5 485.492188 308.074219 485.230469 C 309.410156 485.175781 310.203125 485.980469 310.457031 486.96875 L 488.332031 486.96875 C 488.546875 486.625 488.882812 486.320312 489.367188 486.09375 C 492.371094 484.699219 495.503906 482.570312 497.78125 480.140625 C 499.417969 478.390625 500.394531 476.113281 501.390625 473.925781 L 501.390625 431.269531 L 440.96875 335.738281 " fill-opacity="1" fill-rule="nonzero"/><path fill="#9baba6" d="M 425.558594 323.152344 C 425.558594 335.632812 415.441406 345.75 402.960938 345.75 C 390.476562 345.75 380.359375 335.632812 380.359375 323.152344 C 380.359375 310.667969 390.476562 300.550781 402.960938 300.550781 C 415.441406 300.550781 425.558594 310.667969 425.558594 323.152344 " fill-opacity="1" fill-rule="nonzero"/></svg>