<svg xmlns="http://www.w3.org/2000/svg" xmlns:xlink="http://www.w3.org/1999/xlink" width="1024" zoomAndPan="magnify" viewBox="0 0 768 767.999994" height="1024" preserveAspectRatio="xMidYMid meet" version="1.0"><defs><clipPath id="ef8740639a"><path d="M 266.050781 261.023438 L 510.550781 261.023438 L 510.550781 505.523438 L 266.050781 505.523438 Z M 266.050781 261.023438 " clip-rule="nonzero"/></clipPath></defs><rect x="-76.8" width="921.6" fill="#ffffff" y="-76.799999" height="921.599993" fill-opacity="1"/><rect x="-76.8" width="921.6" fill="#fff4e6" y="-76.799999" height="921.599993" fill-opacity="1"/><path fill="#f1decc" d="M 610.714844 343.664062 C 612.519531 243.460938 465.304688 145.917969 374.582031 142.609375 C 317.464844 140.539062 270.15625 171.730469 232.804688 210.402344 C 196.578125 247.90625 160.136719 287.988281 135.664062 334.414062 C 110.359375 382.445312 97.492188 437.65625 121.113281 488.8125 C 141.402344 532.757812 180.648438 567.824219 222.617188 590.652344 C 312.582031 639.582031 432.296875 648.691406 526.925781 608.363281 C 576.804688 587.101562 612.414062 552.527344 622.652344 497.941406 C 632.257812 446.734375 609.777344 395.757812 610.714844 343.664062 Z M 610.714844 343.664062 " fill-opacity="1" fill-rule="nonzero"/><g clip-path="url(#ef8740639a)"><path fill="#c8b19c" d="M 377.960938 261.023438 L 372.875 290.011719 L 372.894531 290.03125 C 366.671875 291.046875 360.652344 292.679688 354.902344 294.847656 L 354.902344 294.828125 L 336.015625 272.257812 L 318.257812 282.515625 L 328.339844 310.15625 L 328.378906 310.175781 C 323.566406 314.125 319.152344 318.554688 315.207031 323.367188 L 315.1875 323.308594 L 287.546875 313.226562 L 277.289062 330.984375 L 299.859375 349.894531 C 297.691406 355.636719 296.078125 361.648438 295.0625 367.863281 L 295.042969 367.84375 L 266.050781 372.933594 L 266.050781 393.445312 L 295.042969 398.535156 L 295.0625 398.515625 C 296.078125 404.730469 297.691406 410.742188 299.859375 416.488281 L 277.289062 435.398438 L 287.546875 453.152344 L 315.1875 443.070312 L 315.207031 443.011719 C 319.152344 447.828125 323.566406 452.253906 328.378906 456.203125 L 328.339844 456.222656 L 318.257812 483.863281 L 336.015625 494.121094 L 354.902344 471.550781 L 354.902344 471.53125 C 360.652344 473.703125 366.671875 475.332031 372.894531 476.347656 L 372.875 476.367188 L 377.960938 505.359375 L 398.457031 505.359375 L 403.546875 476.367188 L 403.527344 476.347656 C 409.746094 475.332031 415.769531 473.71875 421.515625 471.550781 L 440.425781 494.121094 L 458.179688 483.863281 L 448.082031 456.222656 C 452.882812 452.28125 457.292969 447.871094 461.234375 443.070312 L 488.894531 453.152344 L 499.132812 435.398438 L 476.582031 416.488281 C 478.75 410.742188 480.382812 404.734375 481.398438 398.515625 L 510.386719 393.445312 L 510.386719 372.933594 L 481.398438 367.84375 C 480.382812 361.632812 478.746094 355.632812 476.582031 349.894531 L 499.132812 330.984375 L 488.894531 313.230469 L 461.234375 323.308594 C 457.292969 318.507812 452.882812 314.097656 448.082031 310.15625 L 458.179688 282.515625 L 440.425781 272.257812 L 421.515625 294.828125 C 415.769531 292.660156 409.746094 291.046875 403.527344 290.03125 L 403.546875 290.011719 L 398.457031 261.023438 Z M 388.21875 310.9375 C 428.128906 310.9375 460.496094 343.28125 460.496094 383.1875 C 460.496094 423.09375 428.132812 455.4375 388.21875 455.4375 C 348.3125 455.4375 315.972656 423.09375 315.972656 383.1875 C 315.972656 343.277344 348.3125 310.9375 388.21875 310.9375 Z M 388.21875 310.9375 " fill-opacity="1" fill-rule="nonzero"/></g></svg>