<svg xmlns="http://www.w3.org/2000/svg" xmlns:xlink="http://www.w3.org/1999/xlink" width="1024" zoomAndPan="magnify" viewBox="0 0 768 767.999994" height="1024" preserveAspectRatio="xMidYMid meet" version="1.0"><defs><clipPath id="c25c6f0b80"><path d="M 264.171875 286.039062 L 519.171875 286.039062 L 519.171875 466.789062 L 264.171875 466.789062 Z M 264.171875 286.039062 " clip-rule="nonzero"/></clipPath></defs><rect x="-76.8" width="921.6" fill="#ffffff" y="-76.799999" height="921.599993" fill-opacity="1"/><rect x="-76.8" width="921.6" fill="#dbefe9" y="-76.799999" height="921.599993" fill-opacity="1"/><path fill="#ccddd8" d="M 433.996094 629.847656 C 534.199219 631.652344 631.742188 484.4375 635.050781 393.71875 C 637.121094 336.601562 605.929688 289.292969 567.257812 251.9375 C 529.753906 215.710938 489.667969 179.269531 443.246094 154.800781 C 395.214844 129.496094 340.003906 116.628906 288.84375 140.25 C 244.902344 160.539062 209.835938 199.785156 187.007812 241.753906 C 138.078125 331.714844 128.96875 451.433594 169.296875 546.058594 C 190.558594 595.941406 225.132812 631.550781 279.71875 641.785156 C 330.925781 651.390625 381.902344 628.914062 433.996094 629.847656 Z M 433.996094 629.847656 " fill-opacity="1" fill-rule="nonzero"/><g clip-path="url(#c25c6f0b80)"><path fill="#9baba6" d="M 468.242188 461.9375 L 315.636719 461.9375 C 287.316406 461.9375 264.28125 438.980469 264.28125 410.765625 C 264.273438 409.261719 264.335938 407.757812 264.464844 406.257812 C 264.589844 404.753906 264.785156 403.261719 265.046875 401.78125 C 265.308594 400.296875 265.632812 398.828125 266.023438 397.375 C 266.414062 395.917969 266.867188 394.484375 267.386719 393.070312 C 267.90625 391.65625 268.484375 390.269531 269.128906 388.90625 C 269.769531 387.542969 270.46875 386.210938 271.230469 384.910156 C 271.988281 383.609375 272.804688 382.347656 273.675781 381.117188 C 274.550781 379.890625 275.476562 378.703125 276.453125 377.558594 C 277.429688 376.410156 278.457031 375.3125 279.53125 374.257812 C 280.605469 373.203125 281.726562 372.199219 282.890625 371.242188 C 284.054688 370.289062 285.261719 369.386719 286.503906 368.539062 C 287.75 367.6875 289.027344 366.898438 290.34375 366.164062 C 291.660156 365.429688 293.003906 364.753906 294.378906 364.140625 C 295.753906 363.523438 297.152344 362.972656 298.578125 362.480469 C 300 361.988281 301.445312 361.5625 302.90625 361.199219 C 304.367188 360.835938 305.84375 360.539062 307.332031 360.308594 L 315.070312 359.070312 L 314.671875 349.847656 C 314.644531 349.441406 314.609375 349.035156 314.609375 348.621094 C 314.609375 314.207031 342.609375 286.210938 377.023438 286.210938 C 411.4375 286.210938 439.429688 314.207031 439.429688 348.621094 L 439.039062 359.589844 L 468.242188 359.589844 C 496.457031 359.589844 519.417969 382.546875 519.417969 410.765625 C 519.417969 438.984375 496.460938 461.9375 468.242188 461.9375 Z M 293.003906 521.8125 C 293.5625 521.976562 294.128906 522.082031 294.703125 522.132812 C 295.28125 522.183594 295.859375 522.179688 296.433594 522.117188 C 297.011719 522.050781 297.574219 521.933594 298.128906 521.757812 C 298.679688 521.585938 299.210938 521.359375 299.71875 521.078125 C 300.226562 520.800781 300.703125 520.472656 301.144531 520.101562 C 301.589844 519.726562 301.992188 519.3125 302.355469 518.863281 C 302.714844 518.410156 303.03125 517.925781 303.296875 517.410156 C 303.5625 516.894531 303.777344 516.359375 303.9375 515.804688 L 308.863281 498.859375 C 309.023438 498.304688 309.125 497.738281 309.175781 497.164062 C 309.222656 496.585938 309.214844 496.011719 309.152344 495.4375 C 309.085938 494.859375 308.96875 494.296875 308.792969 493.746094 C 308.617188 493.195312 308.390625 492.667969 308.109375 492.160156 C 307.832031 491.65625 307.503906 491.179688 307.132812 490.738281 C 306.757812 490.296875 306.347656 489.894531 305.894531 489.53125 C 305.445312 489.171875 304.960938 488.855469 304.449219 488.589844 C 303.933594 488.324219 303.402344 488.109375 302.84375 487.949219 C 302.289062 487.789062 301.726562 487.683594 301.148438 487.632812 C 300.574219 487.582031 299.996094 487.589844 299.421875 487.652344 C 298.847656 487.714844 298.285156 487.832031 297.734375 488.007812 C 297.179688 488.179688 296.652344 488.40625 296.144531 488.683594 C 295.636719 488.960938 295.160156 489.289062 294.71875 489.660156 C 294.277344 490.03125 293.871094 490.441406 293.511719 490.890625 C 293.148438 491.34375 292.832031 491.824219 292.566406 492.335938 C 292.296875 492.847656 292.082031 493.382812 291.917969 493.9375 L 286.992188 510.882812 C 286.832031 511.4375 286.726562 512.003906 286.675781 512.582031 C 286.625 513.160156 286.632812 513.734375 286.695312 514.3125 C 286.757812 514.886719 286.878906 515.449219 287.054688 516.003906 C 287.226562 516.554688 287.457031 517.085938 287.734375 517.59375 C 288.011719 518.101562 288.339844 518.574219 288.710938 519.019531 C 289.085938 519.460938 289.496094 519.867188 289.949219 520.226562 C 290.402344 520.589844 290.886719 520.90625 291.398438 521.171875 C 291.914062 521.4375 292.449219 521.652344 293.003906 521.8125 Z M 390.894531 487.925781 C 390.339844 487.765625 389.773438 487.660156 389.195312 487.609375 C 388.617188 487.5625 388.042969 487.566406 387.464844 487.632812 C 386.890625 487.695312 386.328125 487.816406 385.773438 487.988281 C 385.222656 488.164062 384.691406 488.390625 384.183594 488.667969 C 383.675781 488.949219 383.203125 489.273438 382.757812 489.648438 C 382.316406 490.019531 381.910156 490.429688 381.550781 490.882812 C 381.1875 491.335938 380.871094 491.816406 380.605469 492.332031 C 380.335938 492.84375 380.121094 493.378906 379.957031 493.933594 L 375.03125 510.878906 C 374.867188 511.4375 374.757812 512.003906 374.703125 512.582031 C 374.648438 513.160156 374.652344 513.742188 374.714844 514.320312 C 374.777344 514.898438 374.894531 515.464844 375.066406 516.019531 C 375.238281 516.574219 375.464844 517.105469 375.746094 517.617188 C 376.023438 518.125 376.347656 518.605469 376.722656 519.050781 C 377.09375 519.496094 377.507812 519.902344 377.960938 520.265625 C 378.414062 520.628906 378.898438 520.945312 379.414062 521.214844 C 379.929688 521.484375 380.46875 521.699219 381.023438 521.859375 C 381.582031 522.023438 382.152344 522.128906 382.730469 522.179688 C 383.308594 522.230469 383.890625 522.222656 384.46875 522.15625 C 385.042969 522.09375 385.609375 521.972656 386.164062 521.796875 C 386.71875 521.621094 387.25 521.390625 387.757812 521.109375 C 388.265625 520.828125 388.742188 520.5 389.1875 520.125 C 389.632812 519.75 390.035156 519.335938 390.394531 518.878906 C 390.757812 518.425781 391.070312 517.9375 391.335938 517.421875 C 391.601562 516.902344 391.816406 516.367188 391.976562 515.804688 L 396.902344 498.863281 C 397.066406 498.308594 397.171875 497.738281 397.222656 497.164062 C 397.269531 496.585938 397.265625 496.007812 397.203125 495.433594 C 397.136719 494.859375 397.019531 494.292969 396.84375 493.742188 C 396.667969 493.1875 396.441406 492.660156 396.164062 492.152344 C 395.886719 491.644531 395.558594 491.167969 395.1875 490.722656 C 394.8125 490.28125 394.402344 489.878906 393.949219 489.515625 C 393.496094 489.152344 393.015625 488.839844 392.5 488.570312 C 391.984375 488.304688 391.449219 488.089844 390.894531 487.925781 Z M 471.546875 522.167969 C 472.503906 522.167969 473.433594 522.015625 474.339844 521.710938 C 475.246094 521.410156 476.078125 520.972656 476.84375 520.398438 C 477.605469 519.824219 478.261719 519.144531 478.804688 518.359375 C 479.34375 517.570312 479.75 516.722656 480.015625 515.804688 L 484.941406 498.859375 C 485.105469 498.304688 485.210938 497.738281 485.261719 497.160156 C 485.308594 496.582031 485.304688 496.007812 485.238281 495.429688 C 485.175781 494.855469 485.058594 494.289062 484.882812 493.738281 C 484.707031 493.183594 484.480469 492.65625 484.203125 492.148438 C 483.921875 491.640625 483.597656 491.164062 483.226562 490.71875 C 482.851562 490.277344 482.441406 489.875 481.988281 489.511719 C 481.535156 489.148438 481.050781 488.835938 480.539062 488.566406 C 480.023438 488.300781 479.488281 488.085938 478.933594 487.925781 C 478.375 487.761719 477.808594 487.65625 477.230469 487.605469 C 476.65625 487.558594 476.078125 487.5625 475.503906 487.628906 C 474.925781 487.691406 474.363281 487.8125 473.808594 487.984375 C 473.257812 488.160156 472.726562 488.386719 472.21875 488.667969 C 471.710938 488.945312 471.238281 489.273438 470.792969 489.644531 C 470.351562 490.015625 469.945312 490.429688 469.585938 490.882812 C 469.222656 491.335938 468.90625 491.816406 468.640625 492.332031 C 468.375 492.847656 468.160156 493.382812 468 493.9375 L 463.070312 510.882812 C 462.976562 511.207031 462.902344 511.539062 462.84375 511.878906 C 462.789062 512.214844 462.753906 512.550781 462.734375 512.890625 C 462.71875 513.234375 462.722656 513.574219 462.742188 513.914062 C 462.765625 514.253906 462.808594 514.59375 462.871094 514.925781 C 462.929688 515.261719 463.011719 515.59375 463.109375 515.917969 C 463.210938 516.246094 463.328125 516.566406 463.464844 516.878906 C 463.601562 517.191406 463.757812 517.492188 463.929688 517.789062 C 464.101562 518.082031 464.289062 518.367188 464.492188 518.636719 C 464.699219 518.910156 464.917969 519.171875 465.152344 519.417969 C 465.386719 519.664062 465.636719 519.898438 465.898438 520.117188 C 466.160156 520.335938 466.433594 520.539062 466.71875 520.726562 C 467.003906 520.910156 467.300781 521.082031 467.605469 521.234375 C 467.910156 521.386719 468.222656 521.519531 468.542969 521.636719 C 468.863281 521.753906 469.191406 521.851562 469.523438 521.929688 C 469.851562 522.007812 470.1875 522.066406 470.527344 522.109375 C 470.867188 522.148438 471.207031 522.167969 471.546875 522.167969 Z M 343.558594 511.175781 C 343.003906 511.011719 342.4375 510.90625 341.859375 510.859375 C 341.28125 510.808594 340.707031 510.816406 340.128906 510.878906 C 339.554688 510.941406 338.988281 511.0625 338.4375 511.238281 C 337.886719 511.410156 337.355469 511.636719 336.847656 511.917969 C 336.339844 512.195312 335.867188 512.523438 335.421875 512.894531 C 334.980469 513.265625 334.574219 513.679688 334.214844 514.132812 C 333.851562 514.582031 333.535156 515.066406 333.269531 515.582031 C 333.003906 516.09375 332.789062 516.628906 332.625 517.183594 L 327.699219 534.128906 C 327.535156 534.6875 327.425781 535.253906 327.371094 535.835938 C 327.316406 536.414062 327.320312 536.992188 327.382812 537.570312 C 327.445312 538.148438 327.5625 538.714844 327.734375 539.269531 C 327.90625 539.828125 328.132812 540.359375 328.410156 540.871094 C 328.691406 541.382812 329.015625 541.859375 329.390625 542.304688 C 329.761719 542.75 330.175781 543.15625 330.628906 543.523438 C 331.082031 543.886719 331.566406 544.203125 332.082031 544.472656 C 332.597656 544.738281 333.136719 544.953125 333.695312 545.117188 C 334.253906 545.28125 334.824219 545.386719 335.402344 545.433594 C 335.980469 545.484375 336.558594 545.476562 337.136719 545.414062 C 337.714844 545.347656 338.28125 545.226562 338.835938 545.050781 C 339.390625 544.875 339.921875 544.644531 340.429688 544.363281 C 340.941406 544.082031 341.417969 543.75 341.859375 543.375 C 342.304688 543 342.707031 542.582031 343.066406 542.128906 C 343.429688 541.671875 343.742188 541.183594 344.007812 540.667969 C 344.273438 540.148438 344.484375 539.609375 344.644531 539.050781 L 349.566406 522.105469 C 349.730469 521.550781 349.835938 520.984375 349.886719 520.40625 C 349.9375 519.832031 349.929688 519.253906 349.867188 518.679688 C 349.800781 518.101562 349.683594 517.539062 349.507812 516.984375 C 349.332031 516.433594 349.105469 515.902344 348.828125 515.394531 C 348.546875 514.886719 348.222656 514.414062 347.851562 513.96875 C 347.476562 513.527344 347.066406 513.125 346.613281 512.761719 C 346.160156 512.398438 345.679688 512.085938 345.164062 511.816406 C 344.648438 511.550781 344.113281 511.335938 343.558594 511.175781 Z M 424.214844 545.414062 C 425.167969 545.414062 426.101562 545.261719 427.007812 544.960938 C 427.910156 544.65625 428.746094 544.21875 429.511719 543.644531 C 430.273438 543.070312 430.925781 542.390625 431.46875 541.605469 C 432.011719 540.820312 432.417969 539.96875 432.683594 539.050781 L 437.609375 522.105469 C 437.769531 521.550781 437.875 520.984375 437.925781 520.40625 C 437.976562 519.832031 437.96875 519.253906 437.90625 518.679688 C 437.84375 518.101562 437.722656 517.539062 437.546875 516.984375 C 437.375 516.433594 437.148438 515.902344 436.867188 515.394531 C 436.589844 514.886719 436.261719 514.414062 435.890625 513.96875 C 435.519531 513.527344 435.105469 513.125 434.652344 512.761719 C 434.199219 512.398438 433.71875 512.085938 433.203125 511.816406 C 432.691406 511.550781 432.15625 511.335938 431.597656 511.175781 C 431.042969 511.011719 430.476562 510.90625 429.898438 510.855469 C 429.320312 510.808594 428.746094 510.8125 428.167969 510.878906 C 427.59375 510.941406 427.027344 511.058594 426.476562 511.234375 C 425.925781 511.410156 425.394531 511.636719 424.886719 511.914062 C 424.378906 512.195312 423.902344 512.519531 423.460938 512.894531 C 423.015625 513.265625 422.613281 513.679688 422.25 514.128906 C 421.890625 514.582031 421.574219 515.066406 421.308594 515.578125 C 421.042969 516.09375 420.828125 516.628906 420.664062 517.183594 L 415.738281 534.128906 C 415.644531 534.457031 415.570312 534.789062 415.511719 535.125 C 415.457031 535.460938 415.421875 535.800781 415.402344 536.140625 C 415.386719 536.480469 415.390625 536.820312 415.410156 537.160156 C 415.433594 537.5 415.476562 537.839844 415.535156 538.175781 C 415.597656 538.511719 415.679688 538.839844 415.777344 539.167969 C 415.878906 539.492188 415.996094 539.8125 416.132812 540.125 C 416.269531 540.4375 416.425781 540.742188 416.597656 541.035156 C 416.769531 541.332031 416.957031 541.613281 417.160156 541.886719 C 417.367188 542.160156 417.585938 542.417969 417.820312 542.667969 C 418.054688 542.914062 418.304688 543.144531 418.566406 543.363281 C 418.828125 543.582031 419.101562 543.785156 419.386719 543.972656 C 419.671875 544.160156 419.96875 544.328125 420.273438 544.480469 C 420.578125 544.632812 420.890625 544.769531 421.210938 544.886719 C 421.53125 545 421.859375 545.097656 422.191406 545.175781 C 422.519531 545.257812 422.855469 545.316406 423.195312 545.355469 C 423.535156 545.394531 423.875 545.414062 424.214844 545.414062 Z M 424.214844 545.414062 " fill-opacity="1" fill-rule="nonzero"/></g></svg>