<svg xmlns="http://www.w3.org/2000/svg" xmlns:xlink="http://www.w3.org/1999/xlink" width="1024" zoomAndPan="magnify" viewBox="0 0 768 767.999994" height="1024" preserveAspectRatio="xMidYMid meet" version="1.0"><defs><g/></defs><rect x="-76.8" width="921.6" fill="#ffffff" y="-76.799999" height="921.599993" fill-opacity="1"/><rect x="-76.8" width="921.6" fill="#fff4e6" y="-76.799999" height="921.599993" fill-opacity="1"/><path fill="#f1decc" d="M 610.714844 343.664062 C 612.519531 243.460938 465.304688 145.917969 374.582031 142.609375 C 317.464844 140.539062 270.15625 171.730469 232.804688 210.402344 C 196.578125 247.90625 160.136719 287.988281 135.664062 334.414062 C 110.359375 382.445312 97.492188 437.65625 121.113281 488.8125 C 141.402344 532.757812 180.648438 567.824219 222.617188 590.652344 C 312.582031 639.582031 432.296875 648.691406 526.925781 608.363281 C 576.804688 587.101562 612.414062 552.527344 622.652344 497.941406 C 632.257812 446.734375 609.777344 395.757812 610.714844 343.664062 Z M 610.714844 343.664062 " fill-opacity="1" fill-rule="nonzero"/><g fill="#c8b19c" fill-opacity="1"><g transform="translate(313.662181, 481.490848)"><g><path d="M 92.453125 -182.03125 C 85.941406 -182.03125 81.347656 -180.160156 78.671875 -176.421875 C 75.992188 -172.691406 74.65625 -168.628906 74.65625 -164.234375 L 74.65625 -150.734375 L 100.78125 -150.734375 C 105.375 -150.734375 109.203125 -149.25 112.265625 -146.28125 C 115.328125 -143.3125 116.859375 -139.53125 116.859375 -134.9375 C 116.859375 -130.34375 115.328125 -126.5625 112.265625 -123.59375 C 109.203125 -120.632812 105.375 -119.15625 100.78125 -119.15625 L 74.65625 -119.15625 L 74.65625 -17.515625 C 74.65625 -12.535156 73.023438 -8.367188 69.765625 -5.015625 C 66.515625 -1.671875 62.398438 0 57.421875 0 C 52.441406 0 48.328125 -1.671875 45.078125 -5.015625 C 41.828125 -8.367188 40.203125 -12.535156 40.203125 -17.515625 L 40.203125 -119.15625 L 24.6875 -119.15625 C 20.09375 -119.15625 16.265625 -120.632812 13.203125 -123.59375 C 10.140625 -126.5625 8.609375 -130.34375 8.609375 -134.9375 C 8.609375 -139.53125 10.140625 -143.3125 13.203125 -146.28125 C 16.265625 -149.25 20.09375 -150.734375 24.6875 -150.734375 L 40.203125 -150.734375 L 40.203125 -163.9375 C 40.203125 -178.289062 45.128906 -189.96875 54.984375 -198.96875 C 64.835938 -207.96875 79.050781 -212.46875 97.625 -212.46875 C 104.695312 -212.46875 110.863281 -211.03125 116.125 -208.15625 C 121.394531 -205.28125 124.03125 -200.878906 124.03125 -194.953125 C 124.03125 -190.359375 122.691406 -186.625 120.015625 -183.75 C 117.335938 -180.875 114.082031 -179.4375 110.25 -179.4375 C 109.289062 -179.4375 108.285156 -179.53125 107.234375 -179.71875 C 106.179688 -179.914062 105.082031 -180.113281 103.9375 -180.3125 C 99.34375 -181.457031 95.515625 -182.03125 92.453125 -182.03125 Z M 92.453125 -182.03125 "/></g></g></g></svg>