<svg xmlns="http://www.w3.org/2000/svg" xmlns:xlink="http://www.w3.org/1999/xlink" width="1024" zoomAndPan="magnify" viewBox="0 0 768 767.999994" height="1024" preserveAspectRatio="xMidYMid meet" version="1.0"><defs><clipPath id="c5ec3c57c8"><path d="M 313.65625 277.011719 L 477.90625 277.011719 L 477.90625 489.261719 L 313.65625 489.261719 Z M 313.65625 277.011719 " clip-rule="nonzero"/></clipPath></defs><rect x="-76.8" width="921.6" fill="#ffffff" y="-76.799999" height="921.599993" fill-opacity="1"/><rect x="-76.8" width="921.6" fill="#ffd1c5" y="-76.799999" height="921.599993" fill-opacity="1"/><path fill="#ffadad" d="M 333.070312 124.769531 C 232.867188 122.964844 135.320312 270.179688 132.011719 360.902344 C 129.941406 418.015625 161.132812 465.328125 199.808594 502.679688 C 237.308594 538.90625 277.394531 575.347656 323.820312 599.820312 C 371.851562 625.121094 427.0625 637.992188 478.21875 614.367188 C 522.164062 594.078125 557.230469 554.835938 580.058594 512.867188 C 628.988281 422.902344 638.097656 303.183594 597.765625 208.558594 C 576.503906 158.675781 541.929688 123.066406 487.34375 112.832031 C 436.136719 103.226562 385.160156 125.707031 333.070312 124.769531 Z M 333.070312 124.769531 " fill-opacity="1" fill-rule="nonzero"/><g clip-path="url(#c5ec3c57c8)"><path fill="#a87272" d="M 438.929688 340.796875 C 423.488281 340.796875 410.914062 328.21875 410.914062 312.761719 L 410.914062 277.011719 L 313.875 277.011719 L 313.875 489.378906 L 462.761719 489.378906 C 470.847656 489.378906 477.429688 482.800781 477.429688 474.710938 L 477.429688 340.796875 L 438.929688 340.796875 " fill-opacity="1" fill-rule="nonzero"/></g><path fill="#a87272" d="M 438.929688 327.429688 L 467.472656 327.429688 L 424.28125 285.988281 L 424.28125 312.761719 C 424.28125 320.847656 430.859375 327.429688 438.929688 327.429688 " fill-opacity="1" fill-rule="nonzero"/></svg>