<svg xmlns="http://www.w3.org/2000/svg" xmlns:xlink="http://www.w3.org/1999/xlink" width="1024" zoomAndPan="magnify" viewBox="0 0 768 767.999994" height="1024" preserveAspectRatio="xMidYMid meet" version="1.0"><defs><clipPath id="70a98c2530"><path d="M 230.398438 230.398438 L 537.898438 230.398438 L 537.898438 537.898438 L 230.398438 537.898438 Z M 230.398438 230.398438 " clip-rule="nonzero"/></clipPath></defs><rect x="-76.8" width="921.6" fill="#ffffff" y="-76.799999" height="921.599993" fill-opacity="1"/><rect x="-76.8" width="921.6" fill="#ffd1c5" y="-76.799999" height="921.599993" fill-opacity="1"/><path fill="#ffadad" d="M 333.070312 124.769531 C 232.867188 122.964844 135.320312 270.179688 132.011719 360.902344 C 129.941406 418.015625 161.132812 465.328125 199.808594 502.679688 C 237.308594 538.90625 277.394531 575.347656 323.820312 599.820312 C 371.851562 625.121094 427.0625 637.992188 478.21875 614.367188 C 522.164062 594.078125 557.230469 554.835938 580.058594 512.867188 C 628.988281 422.902344 638.097656 303.183594 597.765625 208.558594 C 576.503906 158.675781 541.929688 123.066406 487.34375 112.832031 C 436.136719 103.226562 385.160156 125.707031 333.070312 124.769531 Z M 333.070312 124.769531 " fill-opacity="1" fill-rule="nonzero"/><g clip-path="url(#70a98c2530)"><path fill="#00aeef" d="M 384.148438 230.398438 C 299.238281 230.398438 230.398438 299.238281 230.398438 384.148438 C 230.398438 469.0625 299.238281 537.898438 384.148438 537.898438 C 469.0625 537.898438 537.898438 469.0625 537.898438 384.148438 C 537.898438 299.238281 469.0625 230.398438 384.148438 230.398438 Z M 384.148438 526.253906 C 305.667969 526.253906 242.046875 462.632812 242.046875 384.148438 C 242.046875 305.667969 305.667969 242.046875 384.148438 242.046875 C 462.632812 242.046875 526.253906 305.667969 526.253906 384.148438 C 526.253906 462.632812 462.632812 526.253906 384.148438 526.253906 Z M 384.148438 526.253906 " fill-opacity="1" fill-rule="nonzero"/></g><path fill="#00aeef" d="M 366.105469 459.515625 C 362.25 459.882812 359.167969 460.308594 356.074219 460.453125 C 338.53125 461.285156 325.542969 454.367188 317.667969 438.242188 C 315.160156 433.105469 311.949219 428.257812 308.605469 423.605469 C 306.597656 420.808594 303.78125 418.566406 301.183594 416.238281 L 301.152344 416.210938 C 299.542969 414.792969 300.253906 412.148438 302.363281 411.792969 C 304.84375 411.378906 307.152344 411.824219 309.40625 412.398438 C 316.460938 414.195312 320.988281 419.195312 324.59375 425.175781 C 332.753906 438.703125 346.800781 444.34375 361.996094 440.3125 C 364.574219 439.628906 365.710938 438.519531 366.273438 435.707031 C 366.925781 432.425781 367.816406 429.191406 368.773438 425.894531 C 368.914062 425.410156 369.003906 424.914062 369.046875 424.410156 C 369.085938 423.90625 369.074219 423.402344 369.011719 422.902344 C 368.949219 422.398438 368.839844 421.910156 368.675781 421.429688 C 368.515625 420.953125 368.304688 420.496094 368.050781 420.058594 C 367.796875 419.621094 367.5 419.214844 367.164062 418.839844 C 366.824219 418.460938 366.453125 418.125 366.046875 417.824219 C 365.640625 417.523438 365.207031 417.265625 364.75 417.050781 C 364.289062 416.839844 363.816406 416.675781 363.324219 416.558594 L 363.238281 416.539062 C 347.476562 412.765625 333.859375 405.746094 325.082031 391.339844 C 320.390625 383.636719 318.070312 375.152344 318.191406 366.3125 C 318.324219 356.28125 319.210938 346.230469 320.363281 336.257812 C 321.175781 329.234375 324.429688 323.015625 329.476562 317.96875 C 331.238281 316.207031 331.386719 314.730469 330.535156 312.453125 C 327.0625 303.121094 327.664062 293.769531 330.75 284.417969 C 331.621094 281.78125 332.855469 281.402344 335.382812 282.199219 C 343.191406 284.65625 349.019531 289.738281 354.140625 295.828125 L 354.191406 295.886719 C 354.835938 296.660156 355.578125 297.324219 356.421875 297.875 C 357.261719 298.421875 358.167969 298.839844 359.132812 299.117188 C 360.097656 299.398438 361.085938 299.527344 362.089844 299.511719 C 363.097656 299.496094 364.078125 299.332031 365.035156 299.023438 C 381.242188 293.707031 405.832031 293.636719 421.121094 298.894531 C 422.082031 299.222656 423.066406 299.398438 424.082031 299.425781 C 425.09375 299.453125 426.089844 299.328125 427.066406 299.054688 C 428.042969 298.78125 428.957031 298.367188 429.808594 297.816406 C 430.660156 297.265625 431.410156 296.597656 432.0625 295.820312 L 432.109375 295.761719 C 437.238281 289.675781 443.09375 284.632812 450.898438 282.167969 C 453.515625 281.339844 454.632812 281.96875 455.460938 284.515625 C 458.507812 293.871094 459.027344 303.167969 455.730469 312.59375 C 455.269531 313.921875 455.285156 316.230469 456.113281 317.070312 C 463.109375 324.167969 466.175781 332.980469 466.953125 342.527344 C 467.703125 351.753906 468.515625 361.136719 467.660156 370.296875 C 465.433594 394.117188 450.945312 407.992188 428.921875 414.890625 C 427.035156 415.480469 425.121094 415.976562 423.164062 416.4375 C 422.65625 416.558594 422.167969 416.730469 421.695312 416.953125 C 421.222656 417.175781 420.777344 417.445312 420.363281 417.761719 C 419.949219 418.078125 419.570312 418.433594 419.226562 418.828125 C 418.886719 419.226562 418.589844 419.652344 418.339844 420.109375 C 418.089844 420.566406 417.886719 421.046875 417.734375 421.546875 C 417.585938 422.046875 417.488281 422.558594 417.445312 423.078125 C 417.398438 423.597656 417.410156 424.117188 417.476562 424.636719 C 417.542969 425.152344 417.660156 425.660156 417.832031 426.152344 C 420.832031 434.847656 420.375 444.136719 420.328125 453.367188 C 420.316406 455.488281 420.308594 457.609375 420.304688 459.734375 C 420.304688 460.609375 420.257812 461.484375 420.171875 462.355469 C 420.082031 463.230469 419.953125 464.09375 419.78125 464.953125 C 419.605469 465.8125 419.394531 466.660156 419.136719 467.5 C 418.882812 468.339844 418.585938 469.164062 418.25 469.972656 C 417.910156 470.78125 417.535156 471.570312 417.121094 472.34375 C 416.707031 473.117188 416.257812 473.867188 415.769531 474.59375 C 415.28125 475.324219 414.757812 476.023438 414.203125 476.703125 C 413.644531 477.378906 413.054688 478.027344 412.433594 478.644531 C 411.816406 479.265625 411.164062 479.851562 410.488281 480.40625 C 409.808594 480.960938 409.105469 481.484375 408.375 481.96875 C 407.648438 482.457031 406.894531 482.90625 406.121094 483.316406 C 405.351562 483.730469 404.558594 484.105469 403.75 484.4375 C 402.9375 484.773438 402.113281 485.070312 401.273438 485.324219 C 400.4375 485.578125 399.585938 485.789062 398.726562 485.960938 C 397.867188 486.128906 397 486.257812 396.128906 486.34375 C 395.257812 486.429688 394.382812 486.472656 393.507812 486.472656 L 392.902344 486.472656 C 392.023438 486.472656 391.148438 486.429688 390.277344 486.34375 C 389.402344 486.257812 388.535156 486.128906 387.675781 485.957031 C 386.8125 485.785156 385.964844 485.574219 385.125 485.320312 C 384.285156 485.0625 383.457031 484.769531 382.648438 484.433594 C 381.835938 484.097656 381.042969 483.722656 380.269531 483.308594 C 379.496094 482.894531 378.742188 482.445312 378.015625 481.957031 C 377.285156 481.46875 376.582031 480.945312 375.902344 480.390625 C 375.222656 479.832031 374.574219 479.246094 373.953125 478.625 C 373.332031 478.003906 372.742188 477.355469 372.1875 476.675781 C 371.628906 475.996094 371.109375 475.292969 370.621094 474.5625 C 370.132812 473.832031 369.683594 473.082031 369.269531 472.308594 C 368.855469 471.53125 368.480469 470.742188 368.144531 469.929688 C 367.808594 469.117188 367.511719 468.292969 367.257812 467.453125 C 367.003906 466.613281 366.789062 465.761719 366.617188 464.902344 C 366.449219 464.042969 366.320312 463.175781 366.234375 462.300781 C 366.148438 461.425781 366.105469 460.550781 366.105469 459.675781 Z M 366.105469 459.515625 " fill-opacity="1" fill-rule="nonzero"/></svg>