<svg xmlns="http://www.w3.org/2000/svg" xmlns:xlink="http://www.w3.org/1999/xlink" width="1024" zoomAndPan="magnify" viewBox="0 0 768 767.999994" height="1024" preserveAspectRatio="xMidYMid meet" version="1.0"><defs><clipPath id="7c10596d94"><path d="M 211.265625 230.398438 L 518.765625 230.398438 L 518.765625 537.898438 L 211.265625 537.898438 Z M 211.265625 230.398438 " clip-rule="nonzero"/></clipPath></defs><path fill="#f1decc" d="M 610.714844 343.664062 C 612.519531 243.460938 465.304688 145.917969 374.582031 142.609375 C 317.464844 140.539062 270.15625 171.730469 232.804688 210.402344 C 196.578125 247.90625 160.136719 287.988281 135.664062 334.414062 C 110.359375 382.445312 97.492188 437.65625 121.113281 488.8125 C 141.402344 532.757812 180.648438 567.824219 222.617188 590.652344 C 312.582031 639.582031 432.296875 648.691406 526.925781 608.363281 C 576.804688 587.101562 612.414062 552.527344 622.652344 497.941406 C 632.257812 446.734375 609.777344 395.757812 610.714844 343.664062 Z M 610.714844 343.664062 " fill-opacity="1" fill-rule="nonzero"/><g clip-path="url(#7c10596d94)"><path fill="#bcbec0" d="M 365.019531 230.40625 C 280.105469 230.40625 211.269531 299.242188 211.269531 384.15625 C 211.269531 469.070312 280.105469 537.90625 365.019531 537.90625 C 449.933594 537.90625 518.769531 469.070312 518.769531 384.15625 C 518.769531 299.242188 449.933594 230.40625 365.019531 230.40625 Z M 365.019531 526.261719 C 286.539062 526.261719 222.914062 462.636719 222.914062 384.15625 C 222.914062 305.671875 286.539062 242.050781 365.019531 242.050781 C 443.5 242.050781 507.125 305.675781 507.125 384.15625 C 507.125 462.636719 443.5 526.261719 365.019531 526.261719 Z M 365.019531 526.261719 " fill-opacity="1" fill-rule="nonzero"/></g><path fill="#bcbec0" d="M 346.976562 459.519531 C 343.117188 459.890625 340.039062 460.3125 336.945312 460.460938 C 319.402344 461.289062 306.414062 454.375 298.539062 438.246094 C 296.03125 433.109375 292.816406 428.261719 289.472656 423.609375 C 287.464844 420.816406 284.652344 418.570312 282.050781 416.242188 C 282.042969 416.234375 282.03125 416.222656 282.019531 416.214844 C 280.414062 414.800781 281.121094 412.15625 283.234375 411.800781 C 285.710938 411.382812 288.023438 411.832031 290.273438 412.40625 C 297.328125 414.199219 301.855469 419.199219 305.464844 425.179688 C 313.621094 438.707031 327.671875 444.347656 342.863281 440.320312 C 345.445312 439.632812 346.582031 438.523438 347.140625 435.710938 C 347.796875 432.429688 348.6875 429.195312 349.644531 425.902344 C 349.785156 425.414062 349.875 424.921875 349.914062 424.417969 C 349.953125 423.914062 349.945312 423.410156 349.882812 422.90625 C 349.820312 422.40625 349.707031 421.914062 349.546875 421.4375 C 349.382812 420.957031 349.175781 420.5 348.921875 420.0625 C 348.667969 419.625 348.371094 419.21875 348.03125 418.84375 C 347.695312 418.46875 347.324219 418.128906 346.917969 417.828125 C 346.511719 417.527344 346.078125 417.269531 345.617188 417.058594 C 345.160156 416.84375 344.683594 416.679688 344.191406 416.5625 L 344.109375 416.542969 C 328.34375 412.773438 314.726562 405.75 305.953125 391.34375 C 301.261719 383.640625 298.941406 375.15625 299.058594 366.316406 C 299.195312 356.289062 300.082031 346.238281 301.234375 336.261719 C 302.046875 329.242188 305.296875 323.023438 310.347656 317.972656 C 312.105469 316.210938 312.257812 314.738281 311.40625 312.457031 C 307.929688 303.128906 308.535156 293.777344 311.621094 284.425781 C 312.492188 281.785156 313.726562 281.410156 316.25 282.203125 C 324.0625 284.664062 329.890625 289.746094 335.011719 295.832031 C 335.027344 295.851562 335.046875 295.875 335.0625 295.894531 C 335.707031 296.667969 336.449219 297.328125 337.289062 297.878906 C 338.132812 298.429688 339.035156 298.84375 340.003906 299.125 C 340.96875 299.402344 341.953125 299.535156 342.960938 299.519531 C 343.964844 299.5 344.945312 299.339844 345.902344 299.027344 C 362.113281 293.710938 386.703125 293.640625 401.988281 298.902344 C 402.949219 299.226562 403.9375 299.40625 404.949219 299.433594 C 405.964844 299.457031 406.960938 299.335938 407.9375 299.058594 C 408.914062 298.785156 409.828125 298.371094 410.679688 297.820312 C 411.53125 297.269531 412.28125 296.605469 412.929688 295.824219 L 412.980469 295.765625 C 418.109375 289.679688 423.960938 284.636719 431.769531 282.171875 C 434.386719 281.34375 435.5 281.976562 436.332031 284.523438 C 439.375 293.878906 439.894531 303.171875 436.601562 312.601562 C 436.136719 313.925781 436.15625 316.234375 436.980469 317.074219 C 443.980469 324.171875 447.042969 332.984375 447.820312 342.535156 C 448.574219 351.757812 449.386719 361.140625 448.53125 370.300781 C 446.300781 394.125 431.816406 408 409.789062 414.898438 C 407.90625 415.488281 405.988281 415.980469 404.035156 416.445312 C 403.527344 416.5625 403.035156 416.734375 402.5625 416.957031 C 402.09375 417.183594 401.648438 417.453125 401.234375 417.769531 C 400.816406 418.082031 400.4375 418.441406 400.097656 418.835938 C 399.757812 419.230469 399.460938 419.65625 399.207031 420.117188 C 398.957031 420.574219 398.757812 421.050781 398.605469 421.550781 C 398.453125 422.050781 398.355469 422.5625 398.3125 423.082031 C 398.269531 423.605469 398.28125 424.125 398.347656 424.640625 C 398.410156 425.160156 398.53125 425.664062 398.699219 426.160156 C 401.703125 434.855469 401.242188 444.144531 401.195312 453.371094 C 401.183594 455.492188 401.179688 457.617188 401.175781 459.738281 C 401.171875 460.617188 401.128906 461.492188 401.039062 462.363281 C 400.953125 463.234375 400.824219 464.101562 400.648438 464.960938 C 400.476562 465.820312 400.261719 466.667969 400.007812 467.507812 C 399.75 468.34375 399.453125 469.167969 399.117188 469.976562 C 398.78125 470.785156 398.40625 471.578125 397.992188 472.347656 C 397.578125 473.121094 397.125 473.871094 396.636719 474.601562 C 396.152344 475.328125 395.628906 476.03125 395.070312 476.707031 C 394.515625 477.382812 393.925781 478.03125 393.304688 478.652344 C 392.683594 479.269531 392.035156 479.859375 391.359375 480.414062 C 390.679688 480.96875 389.976562 481.488281 389.246094 481.976562 C 388.519531 482.460938 387.765625 482.910156 386.992188 483.324219 C 386.21875 483.738281 385.429688 484.109375 384.621094 484.445312 C 383.808594 484.78125 382.984375 485.074219 382.144531 485.328125 C 381.308594 485.582031 380.457031 485.796875 379.597656 485.964844 C 378.738281 486.136719 377.871094 486.265625 377 486.351562 C 376.128906 486.4375 375.253906 486.480469 374.378906 486.480469 L 373.773438 486.480469 C 372.894531 486.480469 372.019531 486.4375 371.148438 486.351562 C 370.273438 486.265625 369.40625 486.136719 368.546875 485.964844 C 367.683594 485.792969 366.835938 485.582031 365.996094 485.324219 C 365.15625 485.070312 364.328125 484.777344 363.519531 484.441406 C 362.707031 484.105469 361.914062 483.730469 361.140625 483.316406 C 360.367188 482.902344 359.613281 482.449219 358.886719 481.964844 C 358.15625 481.476562 357.453125 480.953125 356.773438 480.398438 C 356.09375 479.839844 355.445312 479.25 354.824219 478.628906 C 354.203125 478.011719 353.613281 477.359375 353.058594 476.683594 C 352.5 476.003906 351.980469 475.300781 351.492188 474.570312 C 351.003906 473.839844 350.554688 473.085938 350.140625 472.3125 C 349.726562 471.539062 349.351562 470.746094 349.015625 469.9375 C 348.679688 469.125 348.382812 468.300781 348.128906 467.460938 C 347.875 466.621094 347.660156 465.769531 347.488281 464.910156 C 347.320312 464.046875 347.191406 463.179688 347.105469 462.308594 C 347.019531 461.433594 346.976562 460.558594 346.976562 459.679688 Z M 346.976562 459.519531 " fill-opacity="1" fill-rule="nonzero"/></svg>