<svg xmlns="http://www.w3.org/2000/svg" xmlns:xlink="http://www.w3.org/1999/xlink" width="1024" zoomAndPan="magnify" viewBox="0 0 768 767.999994" height="1024" preserveAspectRatio="xMidYMid meet" version="1.0"><defs><clipPath id="efeb2f7c9c"><path d="M 277.945312 279.070312 L 496.945312 279.070312 L 496.945312 487.570312 L 277.945312 487.570312 Z M 277.945312 279.070312 " clip-rule="nonzero"/></clipPath></defs><rect x="-76.8" width="921.6" fill="#ffffff" y="-76.799999" height="921.599993" fill-opacity="1"/><rect x="-76.8" width="921.6" fill="#fff4e6" y="-76.799999" height="921.599993" fill-opacity="1"/><path fill="#f1decc" d="M 610.714844 333.070312 C 612.519531 232.867188 465.304688 135.324219 374.582031 132.015625 C 317.464844 129.945312 270.15625 161.136719 232.804688 199.808594 C 196.578125 237.308594 160.136719 277.394531 135.664062 323.820312 C 110.359375 371.851562 97.492188 427.0625 121.113281 478.21875 C 141.402344 522.164062 180.648438 557.230469 222.617188 580.058594 C 312.582031 628.988281 432.296875 638.097656 526.925781 597.765625 C 576.804688 576.503906 612.414062 541.929688 622.652344 487.34375 C 632.257812 436.136719 609.777344 385.164062 610.714844 333.070312 Z M 610.714844 333.070312 " fill-opacity="1" fill-rule="nonzero"/><g clip-path="url(#efeb2f7c9c)"><path fill="#c8b19c" d="M 497.054688 355.796875 C 497.054688 347.902344 492.941406 341.054688 486.75 337.164062 L 387.554688 279.070312 L 288.359375 337.164062 C 282.167969 341.054688 277.949219 347.902344 277.949219 355.796875 L 277.949219 465.402344 C 277.949219 477.515625 287.757812 487.324219 299.871094 487.324219 L 475.242188 487.324219 C 487.351562 487.324219 497.164062 477.515625 497.164062 465.402344 Z M 387.554688 410.597656 L 297.019531 353.988281 L 387.554688 300.992188 L 478.089844 353.988281 Z M 387.554688 410.597656 " fill-opacity="1" fill-rule="nonzero"/></g></svg>