<svg xmlns="http://www.w3.org/2000/svg" xmlns:xlink="http://www.w3.org/1999/xlink" width="1024" zoomAndPan="magnify" viewBox="0 0 768 767.999994" height="1024" preserveAspectRatio="xMidYMid meet" version="1.0"><defs><clipPath id="f7c57e11d2"><path d="M 276.882812 264.71875 L 500.578125 264.71875 L 500.578125 488.417969 L 276.882812 488.417969 Z M 276.882812 264.71875 " clip-rule="nonzero"/></clipPath><clipPath id="0be7ada4a0"><path d="M 388.730469 264.71875 C 326.957031 264.71875 276.882812 314.796875 276.882812 376.566406 C 276.882812 438.339844 326.957031 488.417969 388.730469 488.417969 C 450.503906 488.417969 500.578125 438.339844 500.578125 376.566406 C 500.578125 314.796875 450.503906 264.71875 388.730469 264.71875 Z M 388.730469 264.71875 " clip-rule="nonzero"/></clipPath><clipPath id="65211c456f"><path d="M 308.292969 296.128906 L 469.167969 296.128906 L 469.167969 457.007812 L 308.292969 457.007812 Z M 308.292969 296.128906 " clip-rule="nonzero"/></clipPath><clipPath id="f571593e19"><path d="M 388.730469 296.128906 C 344.304688 296.128906 308.292969 332.144531 308.292969 376.566406 C 308.292969 420.992188 344.304688 457.007812 388.730469 457.007812 C 433.15625 457.007812 469.167969 420.992188 469.167969 376.566406 C 469.167969 332.144531 433.15625 296.128906 388.730469 296.128906 Z M 388.730469 296.128906 " clip-rule="nonzero"/></clipPath><clipPath id="d32d589082"><path d="M 500.582031 215.839844 L 549.460938 215.839844 L 549.460938 264.71875 L 500.582031 264.71875 Z M 500.582031 215.839844 " clip-rule="nonzero"/></clipPath><clipPath id="e0d592ed4f"><path d="M 525.019531 215.839844 C 511.523438 215.839844 500.582031 226.78125 500.582031 240.277344 C 500.582031 253.777344 511.523438 264.71875 525.019531 264.71875 C 538.519531 264.71875 549.460938 253.777344 549.460938 240.277344 C 549.460938 226.78125 538.519531 215.839844 525.019531 215.839844 Z M 525.019531 215.839844 " clip-rule="nonzero"/></clipPath></defs><rect x="-76.8" width="921.6" fill="#ffffff" y="-76.799999" height="921.599993" fill-opacity="1"/><rect x="-76.8" width="921.6" fill="#d3efff" y="-76.799999" height="921.599993" fill-opacity="1"/><path fill="#beddff" d="M 625.863281 333.070312 C 627.667969 232.867188 480.453125 135.324219 389.730469 132.015625 C 332.617188 129.945312 285.304688 161.136719 247.953125 199.808594 C 211.726562 237.308594 175.285156 277.394531 150.8125 323.820312 C 125.511719 371.851562 112.640625 427.0625 136.261719 478.21875 C 156.550781 522.164062 195.796875 557.230469 237.765625 580.058594 C 327.730469 628.988281 447.449219 638.097656 542.074219 597.765625 C 591.953125 576.503906 627.5625 541.929688 637.800781 487.34375 C 647.40625 436.136719 624.925781 385.164062 625.863281 333.070312 Z M 625.863281 333.070312 " fill-opacity="1" fill-rule="nonzero"/><g clip-path="url(#f7c57e11d2)"><g clip-path="url(#0be7ada4a0)"><path fill="#8daacb" d="M 276.882812 264.71875 L 500.578125 264.71875 L 500.578125 488.417969 L 276.882812 488.417969 Z M 276.882812 264.71875 " fill-opacity="1" fill-rule="nonzero"/></g></g><g clip-path="url(#65211c456f)"><g clip-path="url(#f571593e19)"><path fill="#beddff" d="M 308.292969 296.128906 L 469.167969 296.128906 L 469.167969 457.007812 L 308.292969 457.007812 Z M 308.292969 296.128906 " fill-opacity="1" fill-rule="nonzero"/></g></g><g clip-path="url(#d32d589082)"><g clip-path="url(#e0d592ed4f)"><path fill="#8daacb" d="M 500.582031 215.839844 L 549.460938 215.839844 L 549.460938 264.71875 L 500.582031 264.71875 Z M 500.582031 215.839844 " fill-opacity="1" fill-rule="nonzero"/></g></g></svg>