<svg xmlns="http://www.w3.org/2000/svg" xmlns:xlink="http://www.w3.org/1999/xlink" width="1024" zoomAndPan="magnify" viewBox="0 0 768 767.999994" height="1024" preserveAspectRatio="xMidYMid meet" version="1.0"><defs><clipPath id="961ab15e80"><path d="M 264.757812 232 L 533.257812 232 L 533.257812 501 L 264.757812 501 Z M 264.757812 232 " clip-rule="nonzero"/></clipPath></defs><rect x="-76.8" width="921.6" fill="#ffffff" y="-76.799999" height="921.599993" fill-opacity="1"/><rect x="-76.8" width="921.6" fill="#d3efff" y="-76.799999" height="921.599993" fill-opacity="1"/><path fill="#beddff" d="M 625.863281 333.070312 C 627.667969 232.867188 480.453125 135.320312 389.730469 132.015625 C 332.617188 129.945312 285.304688 161.136719 247.953125 199.808594 C 211.726562 237.308594 175.285156 277.394531 150.8125 323.820312 C 125.511719 371.851562 112.640625 427.0625 136.261719 478.21875 C 156.550781 522.164062 195.796875 557.230469 237.765625 580.058594 C 327.730469 628.988281 447.449219 638.097656 542.074219 597.765625 C 591.953125 576.503906 627.5625 541.929688 637.800781 487.34375 C 647.40625 436.136719 624.925781 385.164062 625.863281 333.070312 Z M 625.863281 333.070312 " fill-opacity="1" fill-rule="nonzero"/><g clip-path="url(#961ab15e80)"><path fill="#000000" d="M 514.082031 232.035156 L 283.878906 232.035156 C 273.328125 232.035156 264.757812 240.742188 264.757812 251.425781 L 264.757812 481.566406 C 264.757812 492.25 273.328125 500.957031 283.878906 500.957031 L 514.082031 500.957031 C 524.628906 500.957031 533.257812 492.25 533.257812 481.566406 L 533.257812 251.425781 C 533.257812 240.742188 524.628906 232.035156 514.082031 232.035156 Z M 345.90625 462.539062 L 306.113281 462.539062 L 306.113281 334.203125 L 345.96875 334.203125 L 345.96875 462.539062 Z M 326.011719 316.675781 C 313.246094 316.675781 302.9375 306.289062 302.9375 293.5625 C 302.9375 280.839844 313.246094 270.453125 326.011719 270.453125 C 338.714844 270.453125 349.085938 280.839844 349.085938 293.5625 C 349.085938 306.347656 338.777344 316.675781 326.011719 316.675781 Z M 495.082031 462.539062 L 455.285156 462.539062 L 455.285156 400.109375 C 455.285156 385.222656 454.984375 366.074219 434.609375 366.074219 C 413.871094 366.074219 410.695312 382.28125 410.695312 399.03125 L 410.695312 462.539062 L 370.898438 462.539062 L 370.898438 334.203125 L 409.078125 334.203125 L 409.078125 351.730469 L 409.617188 351.730469 C 414.949219 341.644531 427.957031 331.019531 447.316406 331.019531 C 487.589844 331.019531 495.082031 357.613281 495.082031 392.1875 Z M 495.082031 462.539062 " fill-opacity="1" fill-rule="nonzero"/></g></svg>