<svg xmlns="http://www.w3.org/2000/svg" xmlns:xlink="http://www.w3.org/1999/xlink" width="1024" zoomAndPan="magnify" viewBox="0 0 768 767.999994" height="1024" preserveAspectRatio="xMidYMid meet" version="1.0"><defs><clipPath id="476a8e6587"><path d="M 316.582031 264.71875 L 457.582031 264.71875 L 457.582031 476.96875 L 316.582031 476.96875 Z M 316.582031 264.71875 " clip-rule="nonzero"/></clipPath></defs><rect x="-76.8" width="921.6" fill="#ffffff" y="-76.799999" height="921.599993" fill-opacity="1"/><rect x="-76.8" width="921.6" fill="#ffd1c5" y="-76.799999" height="921.599993" fill-opacity="1"/><path fill="#ffadad" d="M 319.851562 167.09375 C 219.648438 165.289062 122.105469 312.503906 118.796875 403.226562 C 116.726562 460.339844 147.917969 507.652344 186.589844 545.003906 C 224.09375 581.230469 264.179688 617.671875 310.601562 642.140625 C 358.632812 667.445312 413.84375 680.316406 465.003906 656.691406 C 508.945312 636.402344 544.015625 597.160156 566.839844 555.191406 C 615.769531 465.226562 624.878906 345.507812 584.550781 250.882812 C 563.289062 201 528.714844 165.390625 474.128906 155.15625 C 422.921875 145.550781 371.945312 168.027344 319.851562 167.09375 Z M 319.851562 167.09375 " fill-opacity="1" fill-rule="nonzero"/><g clip-path="url(#476a8e6587)"><path fill="#a87272" d="M 383.203125 446.675781 C 384.390625 447.609375 385.835938 448.074219 387.234375 448.074219 C 388.636719 448.074219 390.078125 447.609375 391.265625 446.675781 C 393.980469 444.59375 457.757812 394.691406 457.757812 335.242188 C 457.800781 296.332031 426.144531 264.71875 387.234375 264.71875 C 348.367188 264.71875 316.710938 296.332031 316.710938 335.242188 C 316.710938 394.691406 380.488281 444.59375 383.203125 446.675781 Z M 387.234375 300.492188 C 404.929688 300.492188 419.316406 314.875 419.316406 332.570312 C 419.316406 350.265625 404.929688 364.648438 387.234375 364.648438 C 369.539062 364.648438 355.15625 350.265625 355.15625 332.570312 C 355.199219 314.875 369.582031 300.492188 387.234375 300.492188 Z M 440.234375 470.265625 C 440.234375 473.917969 437.265625 476.886719 433.613281 476.886719 L 340.898438 476.886719 C 337.207031 476.886719 334.277344 473.917969 334.277344 470.265625 C 334.277344 466.617188 337.246094 463.648438 340.898438 463.648438 L 433.570312 463.648438 C 437.265625 463.648438 440.234375 466.617188 440.234375 470.265625 Z M 440.234375 470.265625 " fill-opacity="1" fill-rule="nonzero"/></g></svg>