<svg xmlns="http://www.w3.org/2000/svg" xmlns:xlink="http://www.w3.org/1999/xlink" width="1024" zoomAndPan="magnify" viewBox="0 0 768 767.999994" height="1024" preserveAspectRatio="xMidYMid meet" version="1.0"><defs><clipPath id="3ff6876c03"><path d="M 308 271 L 483 271 L 483 491 L 308 491 Z M 308 271 " clip-rule="nonzero"/></clipPath><clipPath id="4520a6c7ef"><path d="M 315.804688 261.585938 L 513.523438 297.746094 L 476.148438 502.105469 L 278.425781 465.945312 Z M 315.804688 261.585938 " clip-rule="nonzero"/></clipPath><clipPath id="fec361d34f"><path d="M 315.804688 261.585938 L 513.523438 297.746094 L 476.148438 502.105469 L 278.425781 465.945312 Z M 315.804688 261.585938 " clip-rule="nonzero"/></clipPath></defs><rect x="-76.8" width="921.6" fill="#ffffff" y="-76.799999" height="921.599993" fill-opacity="1"/><rect x="-76.8" width="921.6" fill="#dbefe9" y="-76.799999" height="921.599993" fill-opacity="1"/><path fill="#ccddd8" d="M 434.183594 629.335938 C 534.753906 631.148438 632.660156 483.390625 635.980469 392.335938 C 638.058594 335.007812 606.75 287.523438 567.933594 250.03125 C 530.296875 213.671875 490.0625 177.097656 443.464844 152.535156 C 395.257812 127.136719 339.84375 114.222656 288.496094 137.929688 C 244.390625 158.296875 209.195312 197.683594 186.28125 239.808594 C 137.171875 330.105469 128.027344 450.261719 168.507812 545.238281 C 189.847656 595.304688 224.550781 631.042969 279.335938 641.316406 C 330.734375 650.960938 381.894531 628.398438 434.183594 629.335938 Z M 434.183594 629.335938 " fill-opacity="1" fill-rule="nonzero"/><g clip-path="url(#3ff6876c03)"><g clip-path="url(#4520a6c7ef)"><g clip-path="url(#fec361d34f)"><path fill="#9baba6" d="M 367.664062 290.332031 C 371.453125 297.285156 374.667969 304.566406 377.992188 311.761719 C 384.632812 326.121094 383.21875 337.894531 367.105469 344.792969 C 358.0625 348.667969 356.351562 356.070312 358.484375 364.527344 C 364.351562 387.832031 376.382812 407.183594 396.511719 420.890625 C 405.414062 426.949219 414.105469 428.464844 422.78125 419.625 C 427.367188 414.941406 432.628906 410.339844 440.464844 412.203125 C 450.683594 414.632812 480.636719 445.933594 482.484375 456.492188 C 483.25 460.859375 482.414062 464.917969 480.257812 468.828125 C 468.253906 490.621094 447.433594 496.777344 426.503906 483.480469 C 364.066406 443.820312 325.890625 387 309.28125 315.296875 C 308.34375 311.210938 308.453125 306.875 308.253906 304.636719 C 310.84375 289.46875 328.648438 274.371094 344.058594 271.867188 C 358.882812 269.460938 362.519531 280.878906 367.664062 290.332031 " fill-opacity="1" fill-rule="nonzero"/></g></g></g></svg>