<svg xmlns="http://www.w3.org/2000/svg" xmlns:xlink="http://www.w3.org/1999/xlink" width="1024" zoomAndPan="magnify" viewBox="0 0 768 767.999994" height="1024" preserveAspectRatio="xMidYMid meet" version="1.0"><defs><clipPath id="26efcc044e"><path d="M 271.351562 278 L 508.351562 278 L 508.351562 467 L 271.351562 467 Z M 271.351562 278 " clip-rule="nonzero"/></clipPath></defs><rect x="-76.8" width="921.6" fill="#ffffff" y="-76.799999" height="921.599993" fill-opacity="1"/><rect x="-76.8" width="921.6" fill="#fff4e6" y="-76.799999" height="921.599993" fill-opacity="1"/><path fill="#f1decc" d="M 610.714844 333.070312 C 612.519531 232.867188 465.304688 135.324219 374.582031 132.015625 C 317.464844 129.945312 270.15625 161.136719 232.804688 199.808594 C 196.578125 237.308594 160.136719 277.394531 135.664062 323.820312 C 110.359375 371.851562 97.492188 427.0625 121.113281 478.21875 C 141.402344 522.164062 180.648438 557.230469 222.617188 580.058594 C 312.582031 628.988281 432.296875 638.097656 526.925781 597.765625 C 576.804688 576.503906 612.414062 541.929688 622.652344 487.34375 C 632.257812 436.136719 609.777344 385.164062 610.714844 333.070312 Z M 610.714844 333.070312 " fill-opacity="1" fill-rule="nonzero"/><g clip-path="url(#26efcc044e)"><path fill="#c8b19c" d="M 484.703125 351.375 C 484.59375 346.09375 484.097656 340.796875 483.230469 335.519531 L 508.257812 324.128906 L 479.832031 318.089844 L 490.851562 289.847656 L 466.902344 304.9375 C 444.828125 278.832031 406.945312 270.359375 375.21875 286.632812 C 343.457031 302.925781 328.242188 338.695312 336.628906 371.890625 L 271.386719 405.351562 C 299.839844 460.824219 367.878906 482.730469 423.351562 454.277344 C 461.78125 434.5625 484.082031 395.851562 484.707031 355.484375 C 484.746094 354.113281 484.742188 352.75 484.703125 351.375 Z M 419.296875 314.523438 C 419.296875 307.753906 424.785156 302.261719 431.554688 302.261719 C 438.328125 302.261719 443.816406 307.753906 443.816406 314.523438 C 443.816406 321.296875 438.328125 326.785156 431.554688 326.785156 C 424.785156 326.785156 419.296875 321.296875 419.296875 314.523438 Z M 419.296875 314.523438 " fill-opacity="1" fill-rule="nonzero"/></g></svg>